<?xml version="1.0" encoding="utf-8"?>
<!-- Generator: Adobe Illustrator 26.3.1, SVG Export Plug-In . SVG Version: 6.00 Build 0)  -->
<svg version="1.1" id="Layer_1" xmlns="http://www.w3.org/2000/svg" xmlns:xlink="http://www.w3.org/1999/xlink" x="0px" y="0px"
	 viewBox="0 0 132.4 132.4" style="enable-background:new 0 0 132.4 132.4;" xml:space="preserve">
<style type="text/css">
	.st0{fill:#EF4444;}
	.st1{fill:#FFFFFF;}
</style>
<path class="st0" d="M0,66.2C0,66.2,0,66.2,0,66.2c0,23.4,12.2,43.9,30.5,55.7C12.1,110.1,0,89.6,0,66.2z"/>
<polygon class="st0" points="132.4,66.2 132.4,66.2 132.4,66.2 "/>
<path class="st0" d="M66.2,0C66.2,0,66.2,0,66.2,0c36.6,0,66.2,29.6,66.2,66.2s-29.6,66.2-66.2,66.2c0,0,0,0,0,0
	c36.6,0,66.2-29.6,66.2-66.2C132.4,29.6,102.8,0,66.2,0z"/>
<path class="st0" d="M66.2,132.4C66.2,132.4,66.2,132.4,66.2,132.4c-13.2,0-25.4-3.9-35.7-10.5C40.8,128.5,53,132.4,66.2,132.4z"/>
<path class="st1" d="M111.6,64.9c-0.9-0.2-1.8-0.3-2.7-0.2c-0.7,0.1-1.3,0.2-2,0.4c-0.1-0.1-0.1-0.2-0.2-0.3c0.9-1.3,1.7-2.7,2.6-4
	c0.6-0.8,1.3-1.5,2.1-2.2c1.2-1.3,2.4-2.7,3.7-3.9c1.7-1.7,3.6-3.3,5.4-5c1.3-1.3,2.3-3,2.8-4.9c0.4-1.4,0.3-2.8-0.2-4.2
	c-0.5-1.4-1.4-2.6-2.6-3.4c-2.1-1.2-4.6-1.8-7.1-1.6c-2.4,0-4.7,0.4-7,1.1c-1.7,0.6-3.4,1.2-5,1.9c-1.4,0.6-2.8,1.4-4.2,2.1
	c0.3-0.6,0.7-1.1,1.1-1.7c0.1-0.2,0.3-0.6,0.2-0.8c-0.6-0.8-1.2-1.5-1.9-2.1c-0.7-0.6-1.7-0.9-2.5-1.4c-1.3-0.8-1.5-0.6-2.4,0.5
	c-0.7,0.8-1.4,1.7-2.1,2.6c-1.7,2.3-3.4,4.6-5.1,6.8c-0.4,0.5-0.8,1.1-1.2,1.6c0.1-1.6,0.3-3.1,0.4-4.6c0-0.5-0.1-1-0.2-1.5
	c-0.1-0.7-0.1-1.5-0.1-2.2c0.1-1.3-0.3-2.7-1.2-3.7c-0.6-0.8-1.3-1.5-2.2-2.1c-1.8-1.1-3.8-1.6-5.8-1.4c-1.7,0.1-3.3,0.7-4.6,1.6
	c-1.8,1.3-3.5,2.8-5.1,4.4c-1.2,1.3-2.3,2.6-3.4,4c-0.7,0.9-1.4,2-2.1,2.9c-0.3,0.5-0.7,1-1,1.5c-0.8,1.4-1.6,2.8-2.4,4.2
	c-0.4,0.6-0.8,1.3-1.2,2c-0.2-0.6-0.3-1.2-0.3-1.8c0-1.6,0.4-3.1,1.1-4.5c0.7-1.5,1.6-3,2.6-4.3c1-1.4,2.1-2.7,3.1-4
	c0.1-0.2,0.1-0.5,0-0.8c-0.2-0.2-0.4-0.4-0.7-0.5c-1.4-0.8-2.7-1.5-4.1-2.3c-0.9-0.5-1.8-1.1-2.7-1.5c-1.8-0.8-3.6-1.6-5.4-2.3
	c-0.3-0.2-0.6-0.3-0.9-0.4c-0.8-0.2-1.2,0.3-1.5,1c-0.7,1.1-1.5,2.2-2.4,3.1c-1.1,1.4-2,2.9-2.6,4.6c-0.5,1.3-0.9,2.6-1.4,3.9
	c-0.6,2-0.8,4.1-0.6,6.2c0.1,1.4,0.4,2.7,0.8,4c0.5,1.9,1.3,3.7,1.8,5.6c0.5,1.5,0.7,3.1,0.6,4.7c-0.4,1.9-0.9,3.7-1.6,5.4
	c-0.1,0.3-0.3,0.6-0.4,0.9c-0.3,1-0.7,1.9-1.1,2.9c-0.7,1.4-1.6,2.8-2.4,4.1c-0.6,1-1.3,1.9-1.9,2.9c-1,1.5-1.8,3.2-2.9,4.6
	c-1.6,2.1-3.4,4.1-5.2,6c-0.6,0.5-1.2,1-1.9,1.3c-0.1-0.1-0.2-0.2-0.3-0.2c0.2-1.4,0.4-2.8,0.8-4.2c0.6-2.2,1.3-4.5,2.2-6.6
	c1.1-2.6,2.4-5,3.6-7.5c0.4-0.8,0.9-1.6,1.4-2.4c1.2-2.2,2.4-4.4,3.7-6.6c1.3-1.8,2.4-3.8,3.4-5.8c0.3-0.7,0.1-1.2-0.6-1.5
	c-0.8-0.3-1.6-0.5-2.3-0.7c-2.5-0.9-5-1.8-7.5-2.8c-1.1-0.4-2.2-0.9-3.4-1.4c-1.3-0.5-2.6-1.1-3.8-1.7c-0.7-0.3-1.4-0.6-2.3-1
	c0.1,0.5,0.1,1,0,1.5c-0.4,1.1-0.8,2.2-1.3,3.2c-0.8,1.8-1.5,3.6-2.3,5.4c-0.8,1.9-1.7,3.8-2.5,5.7c-0.5,1-1.1,2.1-1.6,3.1
	c-0.4,0.7-0.7,1.5-1.1,2.2c-0.7,1.6-1.4,3.2-2.2,4.7c-0.6,1.2-1.3,2.2-2,3.4c-0.2,0.3-0.3,0.5-0.4,0.8c-0.3,0.5-0.1,1.2,0.4,1.5
	c0.1,0,0.1,0.1,0.2,0.1c0.6,0.3,1.1,0.6,1.7,0.8c1.3,0.4,2.7,0.9,4,1.2c1,0.3,2.1,0.4,3.1,0.7c0,0.4,0,0.7-0.1,1.1
	c-0.3,1.9-0.6,3.8-0.8,5.7c-0.3,2.7-0.2,5.5,0.5,8.2c0.4,1.8,1.1,3.4,3,4.1c1,0.5,2.2,0.7,3.3,0.4c1.5-0.5,2.9-1.2,4.2-1.9
	c1.5-0.8,2.9-1.7,4.2-2.7c1.4-1.1,2.7-2.4,4.1-3.7c1.3-1.2,2.4-2.6,3.4-4.1c0.7-1,1.4-1.9,2.2-2.8c1.1-1.3,2.2-2.6,3.2-4
	c0.8-1,1.5-2.1,2.3-3.4c-0.1,0.4-0.1,0.6-0.1,0.7c-0.5,2-1,3.9-1.4,5.9c-0.4,2.1-0.6,4.2-0.6,6.3c0,2.5,0.3,4.9,0.9,7.3
	c0.4,1.3,0.8,2.5,2.3,3c1.7,0.6,3.6,0.3,5.1-0.7c0.8-0.5,1.5-1.2,2.1-1.9c0.9-0.8,1.7-1.7,2.4-2.6c1.1-1.4,2.1-2.9,3.1-4.4
	c0.7-1,1.5-2,2.1-3c0.6-0.9,1.1-1.9,1.7-2.8c1.1-1.8,2.3-3.6,3.5-5.4c0.6-1,1.2-2,2-3.2c0,0.2,0,0.4,0,0.5c-0.7,2.5-1.5,5.1-2.1,7.6
	C65,89.2,64.5,91.6,64,94c0,0.1,0,0.3,0,0.4c-0.1,1.1-0.1,2.2-0.2,3.3c0,1.3-0.2,2.6-0.1,3.9c0.1,1,1.1,1.7,2.1,1.6
	c0.2,0,0.3-0.1,0.5-0.1c1.8-0.8,3.7-1.5,5.5-2.3c1.6-0.7,3.2-1.4,4.8-2.1c1.2-0.5,1.5-0.9,1.5-2c-0.1-1.7-0.3-3.4-0.3-5.1
	c0-2,0.2-3.9,0.3-5.9c0-0.4,0.2-0.8,0.3-1.2c0.3-2.2,0.6-4.3,1-6.5c0.2-1.1,0.5-2.1,0.8-3.2c0.3-1.3,0.6-2.5,0.9-3.8
	c0.3-1,0.7-2.1,1-3.1c0.7-1.8,1.3-3.7,2-5.5c0.5-1.2,1-2.3,1.6-3.5c0.3-0.7,0.6-1.3,0.9-2c0.7-1.9,1.9-3.6,3.5-4.9
	c1.2-0.8,2.2-1.7,3.4-2.5c1.6-1,3.4-1.7,5.3-1.9c0.5,0,1,0,1.5,0c1.2,0,1.7,0.7,1.2,1.7c-0.4,0.9-0.8,1.7-1.4,2.5
	c-1,1.3-2.2,2.5-3.3,3.8c-1,1.1-2,2.1-2.9,3.2c-0.9,1-1.8,2-2.5,3.1c-1,1.5-2,3-3,4.5c-1,1.4-2,2.8-2.9,4.3c-1,1.7-1.8,3.5-2.6,5.3
	c-0.6,1.3-1.1,2.7-1.6,4.1c-0.4,1.4-0.8,2.8-1.1,4.2c-0.2,1-0.4,2.1-0.6,3.1c-0.2,1.2-0.3,2.4-0.5,3.6c-0.2,1.4-0.3,2.8-0.5,4.1
	c-0.1,1.4-0.1,2.7-0.2,4.1c0,0.3-0.1,0.6-0.1,0.8c0,1.7-0.1,3.4,0,5.1c0,1.2,0.3,2.4,0.5,3.7c2.4-0.8,4.6-1.5,6.8-2.1
	c1.3-0.4,2.6-0.8,4-1.2c1.8-0.4,3.5-0.8,5.3-1.1c0.1,0,0.2-0.1,0.4-0.1c1.3-0.3,2.6-0.7,4-1c1.6-0.3,3.2-0.4,4.7-0.6
	c1.6-0.1,3.1-0.4,4.5-1c0.6-0.3,1.1-0.9,1-1.4c-0.3-1.8-0.5-3.6-0.7-5.4c-0.1-1.1-0.2-2-0.2-3.2c0-1.4,0-2.4,0-3.1
	c0.2-5.9,0.3-8.1,0.6-11.1l0,0c0.1-0.9,0.2-1.4,0.3-2c0.2-1.3,0.6-2.6,0.9-3.9c0.2-0.8,0.3-1.6,0.5-2.4c0.3-1.1,0.7-2.2,1-3.3
	C111.9,65.8,111.7,65,111.6,64.9z M70.8,51L70.8,51c-0.5,2.6-1.4,5.2-2.4,7.6c-1,2.2-1.9,4.3-2.9,6.5c-0.6,1.4-1.3,2.8-1.9,4.1
	c-0.7,1.6-1.4,3.2-2.1,4.9c0,0,0,0.1,0,0.1c-0.7,1-1.3,2.1-1.7,3.2c-0.8,1.7-1.7,3.4-2.6,5.1c-1,1.7-2,3.5-3.1,5.1
	c-0.8,1.2-1.8,2.2-2.7,3.3c-0.4,0.5-0.9,1.1-1.3,1.6c-0.2,0.1-0.4,0.3-0.6,0.4c0.2-1.3,0.3-2.4,0.5-3.5c0.1-1.1,0.2-2.3,0.5-3.4
	c0.2-1.2,0.6-2.3,0.9-3.5c0.3-1,0.6-2.1,0.9-3.1c0.3-1,0.5-2,0.8-3c0.6-1.8,1.3-3.6,1.9-5.3c0.7-1.8,1.4-3.7,2.1-5.5
	c0.3-0.8,0.7-1.6,1.1-2.4c1-2,1.9-4,2.9-6c0.5-0.9,1.1-1.8,1.6-2.7c1.4-2.3,3-4.4,4.9-6.3c0.5-0.5,1.1-0.8,1.7-1.1
	c0.7-0.3,1.3,0.1,1.4,1C71,49,71,50,70.8,51z"/>
<path class="st0" d="M66.2,0C66.2,0,66.2,0,66.2,0C29.6,0,0,29.6,0,66.2c0,0,0,0,0,0C0,29.6,29.6,0,66.2,0z"/>
<path class="st0" d="M132.4,66.2C132.4,29.6,102.7,0,66.2,0C29.6,0,0,29.6,0,66.2c0,23.4,12.2,43.9,30.5,55.7
	c10.3,6.6,22.6,10.5,35.7,10.5C102.7,132.4,132.4,102.8,132.4,66.2z M111.8,66.2c-0.3,1.1-0.7,2.2-1,3.3c-0.2,0.8-0.3,1.6-0.5,2.4
	c-0.3,1.3-0.7,2.6-0.9,3.9c-0.1,0.6-0.2,1.1-0.3,2l0,0c-0.3,3-0.4,5.2-0.6,11.1c0,0.8-0.1,1.8,0,3.1c0,1.2,0.1,2.1,0.2,3.2
	c0.2,1.8,0.5,3.6,0.7,5.4c0.1,0.5-0.5,1.1-1,1.4c-1.5,0.5-3,0.9-4.5,1c-1.6,0.2-3.2,0.3-4.7,0.6c-1.3,0.2-2.7,0.6-4,1
	c-0.1,0-0.2,0.1-0.4,0.1c-1.8,0.4-3.5,0.7-5.3,1.1c-1.3,0.3-2.7,0.8-4,1.2c-2.2,0.7-4.3,1.4-6.8,2.1c-0.2-1.4-0.4-2.5-0.5-3.7
	c-0.1-1.7,0-3.4,0-5.1c0-0.3,0.1-0.6,0.1-0.8c0.1-1.3,0.1-2.7,0.2-4.1c0.1-1.4,0.3-2.8,0.5-4.1c0.2-1.2,0.3-2.4,0.5-3.6
	c0.2-1,0.4-2.1,0.6-3.1c0.3-1.4,0.7-2.8,1.1-4.2c0.5-1.4,1-2.8,1.6-4.1c0.8-1.8,1.6-3.6,2.6-5.3c0.9-1.5,1.9-2.9,2.9-4.3
	c1-1.5,1.9-3,3-4.5c0.8-1.1,1.7-2.1,2.5-3.1c0.9-1.1,2-2.1,2.9-3.2c1.1-1.2,2.3-2.4,3.3-3.8c0.6-0.8,1.1-1.6,1.4-2.5
	c0.4-1-0.1-1.7-1.2-1.7c-0.5,0-1,0-1.5,0c-1.9,0.2-3.7,0.9-5.3,1.9c-1.1,0.8-2.2,1.7-3.4,2.5c-1.6,1.3-2.8,3-3.5,4.9
	c-0.3,0.7-0.6,1.3-0.9,2c-0.5,1.2-1.1,2.3-1.6,3.5c-0.7,1.8-1.4,3.7-2,5.5c-0.4,1-0.7,2-1,3.1c-0.4,1.2-0.6,2.5-0.9,3.8
	c-0.3,1.1-0.6,2.1-0.8,3.2c-0.4,2.2-0.7,4.3-1,6.5c-0.1,0.4-0.2,0.8-0.3,1.2c-0.1,2-0.3,3.9-0.3,5.9c0,1.7,0.2,3.4,0.3,5.1
	c0.1,1-0.2,1.5-1.5,2c-1.6,0.7-3.2,1.4-4.8,2.1c-1.8,0.8-3.7,1.5-5.5,2.3c-0.2,0.1-0.3,0.1-0.5,0.1c-1,0.1-1.9-0.6-2.1-1.6
	c-0.1-1.3,0.1-2.6,0.1-3.9c0-1.1,0.1-2.2,0.2-3.3c0-0.1,0-0.3,0-0.4c0.5-2.4,1-4.9,1.6-7.3c0.6-2.6,1.4-5.1,2.1-7.6
	c0-0.2,0-0.4,0-0.5c-0.7,1.2-1.3,2.2-2,3.2c-1.2,1.8-2.3,3.6-3.5,5.4c-0.6,0.9-1.1,1.9-1.7,2.8c-0.7,1-1.4,2-2.1,3
	c-1,1.5-2,3-3.1,4.4c-0.8,0.9-1.6,1.8-2.4,2.6c-0.6,0.7-1.3,1.3-2.1,1.9c-1.5,1-3.4,1.3-5.1,0.7c-1.6-0.5-2-1.7-2.3-3
	c-0.6-2.4-0.9-4.8-0.9-7.3c0-2.1,0.2-4.2,0.6-6.3c0.3-2,0.9-3.9,1.4-5.9c0-0.2,0-0.4,0.1-0.7c-0.9,1.2-1.5,2.4-2.3,3.4
	c-1,1.4-2.1,2.7-3.2,4c-0.8,0.9-1.5,1.8-2.2,2.8c-0.9,1.5-2.1,2.9-3.4,4.1c-1.3,1.2-2.6,2.6-4.1,3.7c-1.3,1-2.7,1.9-4.2,2.7
	c-1.3,0.8-2.8,1.4-4.2,1.9c-1.1,0.3-2.3,0.2-3.3-0.4c-1.9-0.7-2.6-2.3-3-4.1c-0.6-2.7-0.8-5.5-0.5-8.2c0.2-1.9,0.6-3.8,0.8-5.7
	c0.1-0.3,0-0.7,0.1-1.1c-1-0.2-2.1-0.4-3.1-0.7c-1.4-0.4-2.7-0.8-4-1.2c-0.6-0.2-1.2-0.5-1.7-0.8c-0.1,0-0.1,0-0.2-0.1
	c-0.5-0.3-0.7-1-0.4-1.5c0.1-0.3,0.2-0.6,0.4-0.8c0.7-1.1,1.4-2.2,2-3.4c0.8-1.5,1.5-3.1,2.2-4.7c0.4-0.8,0.7-1.5,1.1-2.2
	c0.5-1,1.1-2,1.6-3.1c0.9-1.9,1.7-3.8,2.5-5.7c0.8-1.8,1.6-3.6,2.3-5.4c0.5-1.1,0.9-2.1,1.3-3.2c0.1-0.5,0.1-1,0-1.5
	c0.9,0.4,1.6,0.7,2.3,1c1.3,0.6,2.6,1.1,3.8,1.7c1.1,0.5,2.2,0.9,3.4,1.4c2.5,0.9,5,1.9,7.5,2.8c0.8,0.3,1.6,0.5,2.3,0.7
	c0.8,0.2,0.9,0.7,0.6,1.5c-1,2-2.1,4-3.4,5.8c-1.3,2.2-2.5,4.4-3.7,6.6c-0.5,0.8-1,1.6-1.4,2.4c-1.2,2.5-2.5,5-3.6,7.5
	c-0.9,2.2-1.6,4.4-2.2,6.6c-0.3,1.4-0.6,2.8-0.8,4.2c0.1,0.1,0.2,0.1,0.3,0.2c0.7-0.4,1.3-0.8,1.9-1.3c1.8-2,3.5-3.9,5.2-6
	c1.1-1.4,2-3.1,2.9-4.6c0.6-1,1.3-1.9,1.9-2.9c0.8-1.4,1.7-2.7,2.4-4.1c0.4-0.9,0.8-1.9,1.1-2.9c0.1-0.3,0.3-0.6,0.4-0.9
	c0.7-1.8,1.3-3.6,1.6-5.4c0.1-1.6-0.1-3.2-0.6-4.7c-0.5-1.9-1.3-3.7-1.8-5.6c-0.4-1.3-0.6-2.6-0.8-4c-0.2-2.1,0-4.2,0.6-6.2
	c0.5-1.3,0.9-2.6,1.4-3.9c0.6-1.7,1.5-3.2,2.6-4.6c0.9-1,1.7-2,2.4-3.1c0.4-0.6,0.8-1.1,1.5-1c0.3,0.1,0.6,0.2,0.9,0.4
	c1.8,0.8,3.6,1.5,5.4,2.3c0.9,0.4,1.8,1,2.7,1.5c1.4,0.8,2.7,1.5,4.1,2.3c0.3,0.1,0.5,0.3,0.7,0.5c0.1,0.2,0.1,0.5,0,0.8
	c-1,1.3-2.1,2.6-3.1,4c-1,1.4-1.8,2.8-2.6,4.3c-0.7,1.4-1.1,2.9-1.1,4.5c0.1,0.6,0.2,1.2,0.3,1.8c0.5-0.7,0.8-1.4,1.2-2
	c0.8-1.4,1.6-2.8,2.4-4.2c0.3-0.5,0.7-1,1-1.5c0.7-1,1.4-2,2.1-2.9c1-1.4,2.2-2.8,3.4-4c1.6-1.6,3.3-3.1,5.1-4.4
	c1.4-1,3-1.5,4.6-1.6c2-0.1,4.1,0.4,5.8,1.4c0.8,0.6,1.6,1.3,2.2,2.1c0.9,1,1.3,2.4,1.2,3.7c0,0.7,0,1.5,0.1,2.2
	c0.1,0.5,0.2,1,0.2,1.5c-0.1,1.5-0.3,3.1-0.4,4.6c0.4-0.5,0.8-1,1.2-1.6c1.7-2.3,3.4-4.6,5.1-6.8c0.7-0.9,1.3-1.8,2.1-2.6
	c0.9-1,1.1-1.3,2.4-0.5c0.8,0.5,1.7,0.8,2.5,1.4c0.7,0.6,1.4,1.3,1.9,2.1c0.1,0.1-0.1,0.6-0.2,0.8c-0.4,0.5-0.8,1.1-1.1,1.7
	c1.4-0.7,2.8-1.5,4.2-2.1c1.6-0.7,3.3-1.3,5-1.9c2.2-0.8,4.6-1.2,7-1.1c2.5-0.2,4.9,0.4,7.1,1.6c1.2,0.8,2.1,2,2.6,3.4
	c0.5,1.3,0.6,2.8,0.2,4.2c-0.5,1.8-1.4,3.5-2.8,4.9c-1.8,1.7-3.6,3.3-5.4,5c-1.3,1.2-2.4,2.6-3.7,3.9c-0.7,0.7-1.4,1.4-2.1,2.2
	c-0.9,1.3-1.8,2.6-2.6,4c0.1,0.1,0.1,0.2,0.2,0.3c0.6-0.2,1.3-0.3,2-0.4c0.9,0,1.8,0.1,2.7,0.2C111.7,65,111.9,65.8,111.8,66.2z"/>
<path class="st0" d="M69.3,47c-0.6,0.2-1.2,0.6-1.7,1.1c-1.8,1.9-3.5,4-4.9,6.3c-0.6,0.9-1.2,1.8-1.6,2.7c-1,2-2,4-2.9,6
	c-0.4,0.8-0.8,1.6-1.1,2.4c-0.7,1.8-1.4,3.7-2.1,5.5c-0.7,1.8-1.3,3.5-1.9,5.3c-0.3,1-0.6,2-0.8,3c-0.3,1-0.6,2.1-0.9,3.1
	c-0.3,1.2-0.7,2.3-0.9,3.5c-0.2,1.1-0.3,2.3-0.5,3.4c-0.1,1.1-0.3,2.2-0.5,3.5c0.2-0.1,0.4-0.2,0.6-0.4c0.5-0.5,0.9-1.1,1.3-1.6
	c0.9-1.1,1.9-2.2,2.7-3.3c1.1-1.7,2.1-3.4,3.1-5.1c0.9-1.7,1.7-3.4,2.6-5.1c0.4-1.2,1-2.3,1.7-3.2c0,0,0,0,0-0.1
	c0.7-1.6,1.4-3.2,2.1-4.9c0.6-1.4,1.3-2.8,1.9-4.1c1-2.2,1.9-4.3,2.9-6.5c1.1-2.5,1.9-5,2.4-7.6l0,0c0.2-1,0.1-2-0.1-3
	C70.6,47.2,70,46.8,69.3,47z"/>
</svg>
