<svg xmlns="http://www.w3.org/2000/svg" width="100%" height="81.422" viewBox="0 0 133.625 81.422">
  <g id="jonLogo" transform="translate(-126.898 -146.066)">
    <path id="Path_1" data-name="Path 1" d="M242.026,194.026c.245-.752.591-1.469.828-2.223.331-1.053.551-2.146.915-3.187.663-1.9,1.422-3.771,2.094-5.67.339-.954.569-1.949.858-2.92.336-1.125.648-2.258,1.041-3.363.292-.821.062-1.516-.781-1.657-1.615-.27-3.239-.5-4.871-.635a1.368,1.368,0,0,0-1.528.974c-.527,1.523-1.157,3.012-1.738,4.518-.376.974-.774,1.944-1.1,2.935-.836,2.544-1.612,5.111-2.46,7.651-.66,1.978-1.4,3.929-2.094,5.9-.161.453-.282.917-.423,1.377a25.2,25.2,0,0,1,.373-4.1c.237-1.338.6-2.653.9-3.981.178-.809.289-1.632.5-2.428.3-1.125.725-2.218.989-3.351.091-.391-.069-1.194-.24-1.231a11.763,11.763,0,0,0-2.732-.247,12.293,12.293,0,0,0-2.02.376c-.067-.109-.133-.218-.2-.326.885-1.355,1.719-2.75,2.676-4.05a26.509,26.509,0,0,1,2.1-2.25c1.241-1.323,2.426-2.7,3.724-3.964,1.78-1.731,3.652-3.368,5.467-5.062a10.7,10.7,0,0,0,2.819-4.975,6.89,6.89,0,0,0-.166-4.248,6.56,6.56,0,0,0-2.648-3.447,12.415,12.415,0,0,0-7.22-1.667,20.7,20.7,0,0,0-7.127,1.167c-1.7.648-3.43,1.246-5.1,1.981-1.464.645-2.859,1.449-4.283,2.183a10.815,10.815,0,0,1,1.167-1.684c.156-.213.326-.655.225-.781a12.418,12.418,0,0,0-1.956-2.127c-.749-.581-1.714-.878-2.517-1.4-1.313-.861-1.585-.574-2.468.482-.729.87-1.417,1.775-2.1,2.685q-2.6,3.487-5.176,6.988c-.41.554-.823,1.108-1.192,1.6.141-1.592.309-3.163.406-4.738a10.406,10.406,0,0,0-.188-1.494,18.24,18.24,0,0,1-.136-2.26,5.185,5.185,0,0,0-1.234-3.769,9.426,9.426,0,0,0-2.2-2.129,10.432,10.432,0,0,0-5.942-1.461,9.34,9.34,0,0,0-4.74,1.639,42.464,42.464,0,0,0-5.21,4.476,43.222,43.222,0,0,0-3.469,4.11c-.759.959-1.429,1.988-2.136,2.987-.359.5-.744.994-1.058,1.526-.838,1.422-1.639,2.868-2.465,4.3-.381.658-.786,1.3-1.244,2.05a12.5,12.5,0,0,1-.361-1.862,10.248,10.248,0,0,1,1.17-4.607,29.621,29.621,0,0,1,2.624-4.4c.972-1.412,2.112-2.708,3.135-4.083a.9.9,0,0,0-.04-.789,1.726,1.726,0,0,0-.673-.539c-1.39-.791-2.792-1.563-4.184-2.349-.917-.517-1.793-1.118-2.745-1.563-1.8-.841-3.645-1.595-5.47-2.389a5.033,5.033,0,0,0-.932-.42c-.8-.158-1.175.314-1.583.969a27.512,27.512,0,0,1-2.421,3.22,15.049,15.049,0,0,0-2.651,4.686c-.475,1.318-.93,2.643-1.39,3.969a15.669,15.669,0,0,0-.593,6.335,20.981,20.981,0,0,0,.769,4.087c.539,1.926,1.34,3.781,1.822,5.719a13.9,13.9,0,0,1,.613,4.842,30.529,30.529,0,0,1-1.672,5.539c-.1.321-.321.6-.443.922a28.319,28.319,0,0,1-1.12,2.938c-.744,1.439-1.607,2.816-2.458,4.2-.621,1.009-1.313,1.973-1.949,2.972-1,1.58-1.862,3.264-3,4.735-1.652,2.136-3.467,4.149-5.279,6.152a10.8,10.8,0,0,1-1.9,1.362c-.114-.077-.225-.156-.339-.232a41.553,41.553,0,0,1,.769-4.275,59.474,59.474,0,0,1,2.243-6.761c1.1-2.621,2.433-5.143,3.694-7.7.42-.848.932-1.649,1.395-2.475,1.251-2.238,2.463-4.5,3.759-6.714a47.494,47.494,0,0,0,3.462-5.907c.3-.749.136-1.249-.628-1.5-.791-.262-1.6-.47-2.386-.752q-3.858-1.387-7.7-2.819c-1.155-.433-2.292-.912-3.432-1.392-1.311-.551-2.611-1.123-3.919-1.684-.722-.309-1.447-.616-2.384-1.016a5.741,5.741,0,0,1-.02,1.533c-.378,1.125-.836,2.223-1.3,3.318q-1.165,2.771-2.371,5.527c-.848,1.944-1.694,3.89-2.584,5.816-.495,1.071-1.086,2.1-1.622,3.148-.381.747-.759,1.494-1.115,2.253-.754,1.61-1.447,3.249-2.258,4.832-.608,1.189-1.363,2.3-2.043,3.459a5.381,5.381,0,0,0-.413.838,1.13,1.13,0,0,0,.589,1.642c.593.265,1.162.6,1.775.8,1.367.455,2.747.885,4.139,1.256,1.039.277,2.1.445,3.148.66-.02.4-.01.754-.062,1.1-.279,1.944-.638,3.877-.843,5.828a24.116,24.116,0,0,0,.487,8.353c.455,1.84,1.14,3.459,3.074,4.211a4.839,4.839,0,0,0,3.407.364,29.324,29.324,0,0,0,4.32-1.946,32.255,32.255,0,0,0,4.28-2.8c1.466-1.155,2.794-2.488,4.159-3.769a21.655,21.655,0,0,0,3.442-4.184,31.871,31.871,0,0,1,2.258-2.829c1.1-1.35,2.225-2.671,3.276-4.055.794-1.046,1.486-2.171,2.357-3.454-.052.381-.062.566-.1.742-.477,2.008-1.076,4-1.409,6.026a30.071,30.071,0,0,0-.586,6.427,34.207,34.207,0,0,0,.927,7.446c.363,1.318.784,2.559,2.391,3.024a6.017,6.017,0,0,0,5.19-.712,13.945,13.945,0,0,0,2.159-1.909,28.509,28.509,0,0,0,2.475-2.656c1.123-1.447,2.134-2.98,3.192-4.476.732-1.034,1.489-2.05,2.186-3.106.616-.935,1.145-1.929,1.746-2.871,1.177-1.842,2.389-3.66,3.566-5.5.655-1.026,1.271-2.077,2.015-3.3a3.149,3.149,0,0,1,0,.549c-.732,2.591-1.528,5.163-2.183,7.774-.613,2.451-1.078,4.936-1.6,7.408a2.3,2.3,0,0,0-.015.393c-.057,1.118-.129,2.235-.173,3.356-.052,1.32-.173,2.648-.1,3.961a1.884,1.884,0,0,0,2.636,1.459q2.8-1.176,5.6-2.361c1.649-.7,3.289-1.419,4.941-2.112,1.259-.527,1.541-.937,1.479-2.013-.1-1.746-.287-3.492-.277-5.237.01-2,.181-4.008.312-6.009.027-.415.223-.819.287-1.236.344-2.206.638-4.421,1.021-6.62.19-1.088.539-2.149.806-3.222.321-1.286.6-2.582.964-3.855.3-1.063.673-2.109,1.046-3.15.67-1.874,1.335-3.751,2.065-5.6.472-1.2,1.058-2.347,1.592-3.519.307-.67.616-1.34.912-2.015a11.031,11.031,0,0,1,3.561-4.98c1.175-.816,2.282-1.728,3.45-2.554a12.423,12.423,0,0,1,5.373-1.981,8.351,8.351,0,0,1,1.513-.015c1.187.03,1.714.682,1.269,1.741a10.912,10.912,0,0,1-1.447,2.559c-1.061,1.335-2.248,2.569-3.4,3.835-.989,1.093-2.018,2.149-2.985,3.259-.9,1.034-1.8,2.077-2.594,3.192-1.063,1.486-2.018,3.046-3.032,4.567-.982,1.471-2.075,2.876-2.94,4.411-.992,1.761-1.832,3.61-2.656,5.46a42.447,42.447,0,0,0-1.6,4.2c-.448,1.39-.791,2.816-1.13,4.241-.25,1.044-.448,2.1-.621,3.16-.2,1.2-.349,2.416-.5,3.628-.176,1.412-.361,2.824-.477,4.238-.114,1.38-.136,2.765-.213,4.147-.015.287-.134.569-.138.853-.022,1.736-.087,3.474-.01,5.208.054,1.219.312,2.426.5,3.813,2.463-.774,4.674-1.481,6.892-2.161,1.353-.415,2.7-.848,4.075-1.18,1.79-.43,3.6-.764,5.4-1.14.126-.027.247-.087.373-.116,1.35-.331,2.688-.729,4.053-.967,1.6-.277,3.224-.373,4.827-.621a15.209,15.209,0,0,0,4.644-.984c.591-.294,1.128-.863,1.051-1.4-.262-1.83-.527-3.66-.729-5.495-.119-1.076-.012-2.186-.213-3.242-.156-.816.23-.781.734-.742.816.067,1.627.193,2.443.247a2.533,2.533,0,0,0,2.329-1.612q.649-2.062,1.264-4.139c.408-1.372.776-2.755,1.194-4.122C240.784,197.893,241.4,195.957,242.026,194.026ZM193.7,168.386a38.977,38.977,0,0,1-2.453,7.782c-1.011,2.2-1.953,4.429-2.945,6.634-.638,1.417-1.33,2.812-1.968,4.231-.739,1.647-1.447,3.309-2.166,4.965a.247.247,0,0,1-.037.072,11.165,11.165,0,0,0-1.738,3.294c-.853,1.733-1.691,3.477-2.624,5.166-.984,1.78-2.008,3.543-3.133,5.237-.8,1.209-1.8,2.287-2.718,3.422-.448.556-.9,1.115-1.358,1.659a3.122,3.122,0,0,1-.616.364c.181-1.348.334-2.488.482-3.625s.23-2.312.457-3.447c.245-1.214.621-2.4.945-3.6.289-1.068.586-2.134.875-3.2.279-1.029.5-2.075.846-3.081.621-1.835,1.3-3.65,1.978-5.465.7-1.872,1.419-3.739,2.166-5.591.336-.831.759-1.627,1.15-2.438.982-2.043,1.939-4.1,2.967-6.12.485-.954,1.1-1.842,1.667-2.752a39.239,39.239,0,0,1,4.96-6.432,4.992,4.992,0,0,1,1.719-1.076c.712-.292,1.308.1,1.461.969A7.4,7.4,0,0,1,193.7,168.386Z" transform="translate(0)" fill="#fff"/>
    <path id="Path_2" data-name="Path 2" d="M592.287,337.71a8.949,8.949,0,0,0-3.2.126,1.462,1.462,0,0,0-1.12,1.256c-.208,1.031-.279,2.09-.465,3.126-.336,1.855-.724,3.7-1.073,5.551q-.312,1.665-.574,3.338-.49,3.134-.952,6.271c-.23,1.541-.475,3.081-.67,4.629-.151,1.187-.2,2.389-.356,3.576-.089.682-.3,1.348-.455,2.023.054.015.111.027.166.042-.049.477-.1.954-.151,1.432a1.287,1.287,0,0,0,1.575,1.476c.809-.131,1.635-.181,2.436-.349.341-.072.816-.274.92-.542a9.393,9.393,0,0,0,.6-2.315c.319-2.626.551-5.262.86-7.891.2-1.684.453-3.363.715-5.037.314-2,.663-4,.992-6,.183-1.123.363-2.248.522-3.375.178-1.266.309-2.54.495-3.806.129-.875.317-1.743.47-2.616C593.126,338.049,592.8,337.769,592.287,337.71Z" transform="translate(-343.635 -144.191)" fill="#fff"/>
    <path id="Path_3" data-name="Path 3" d="M636.215,307.273a1.287,1.287,0,0,0-1.523.759c-.7,2.213-1.417,4.421-2.1,6.639-.4,1.281-.725,2.584-1.113,3.867-.344,1.135-.752,2.248-1.088,3.383-.579,1.944-1.1,3.907-1.694,5.846-.334,1.1-.762,2.164-1.14,3.249a2.323,2.323,0,0,0-.067.455c-.205,1.071.715,1.046,1.256,1.113a1.152,1.152,0,0,0,1.335-.93c.482-1.743,1.078-3.457,1.639-5.178.282-.86.628-1.7.883-2.569.371-1.271.645-2.574,1.031-3.84.566-1.862,1.2-3.7,1.8-5.554.6-1.877,1.157-3.771,1.793-5.638C637.486,308.126,637.132,307.545,636.215,307.273Z" transform="translate(-376.786 -121.311)" fill="#fff"/>
  </g>
</svg>
