<?xml version="1.0" encoding="UTF-8"?><svg id="Layer_1" xmlns="http://www.w3.org/2000/svg" viewBox="0 0 2500 2500"><path d="M1573.06,1382.5c-43.82-33.22-101.77-49.82-173.85-49.82h-362.51v415.52h356.15c32.51,0,63.59-3.18,93.28-9.53,29.68-6.37,55.83-16.96,78.44-31.81,22.62-14.83,40.63-34.98,54.06-60.42,13.43-25.44,20.15-57.94,20.15-97.52,0-77.73-21.91-133.2-65.72-166.42Z" style="fill:#f5f5f4;"/><path d="M1520.05,1063.44c38.16-28.26,57.25-74.2,57.25-137.8,0-35.32-6.37-64.3-19.08-86.91-12.72-22.61-29.69-40.27-50.88-53-21.2-12.72-45.59-21.55-73.14-26.49-27.56-4.95-56.17-7.42-85.86-7.42h-311.63v354.03h337.07c59.37,0,108.12-14.13,146.28-42.4Z" style="fill:#f5f5f4;"/><path d="M2177.65,0H322.36C144.31,0,0,144.33,0,322.35v1855.28H0c0,178.06,144.33,322.36,322.35,322.36h1855.28c178.06,0,322.36-144.33,322.36-322.35V322.36c0-178.06-144.33-322.36-322.35-322.36Zm-250.56,1766.22c-29.68,55.82-69.61,101.41-119.78,136.74-50.18,35.33-107.41,61.47-171.72,78.44s-130.38,25.44-198.22,25.44H703.86V493.16h712.31c72.08,0,137.8,6.36,197.16,19.08,59.37,12.71,110.24,33.56,152.64,62.54,42.4,28.97,75.26,67.49,98.58,115.54,23.32,48.06,34.98,107.41,34.98,178.08,0,76.33-17.31,139.92-51.93,190.8-34.63,50.88-85.87,92.58-153.71,125.08,93.28,26.86,162.89,73.85,208.83,140.99,45.93,67.13,68.9,148.04,68.9,242.73,0,76.32-14.83,142.39-44.52,198.22Z" style="fill:#f5f5f4;"/></svg>