<?xml version="1.0" encoding="utf-8"?>
<!-- Generator: Adobe Illustrator 26.3.1, SVG Export Plug-In . SVG Version: 6.00 Build 0)  -->
<svg version="1.1" id="Layer_1" xmlns="http://www.w3.org/2000/svg" xmlns:xlink="http://www.w3.org/1999/xlink" x="0px" y="0px"
	 viewBox="0 0 32.6 41" style="enable-background:new 0 0 32.6 41;" xml:space="preserve">
<style type="text/css">
	.st0{fill:#F5F5F4;}
</style>
<path class="st0" d="M20.4,0l4.7,2.7L6.5,13.4l-4.7-2.7L20.4,0z"/>
<path class="st0" d="M25.3,3.3L6.8,13.9l0,5.4L25.3,8.7L25.3,3.3z"/>
<path class="st0" d="M17.9,13.8l-11,6.3l0,5.4l11-6.3L17.9,13.8z"/>
<path class="st0" d="M13.7,22.3l-6.8,3.9l0,5.4l6.8-3.9L13.7,22.3z"/>
<path class="st0" d="M1.4,11.2L6.2,14l0,5.4l-4.8-2.7L1.4,11.2z"/>
<path class="st0" d="M1.5,17.4l4.7,2.7l0,5.4l-4.7-2.7L1.5,17.4z"/>
<path class="st0" d="M1.5,23.5l4.7,2.7l0,5.7l-4.7-2.7L1.5,23.5z"/>
<path class="st0" d="M12,41l-4.7-2.7l18.4-10.6l4.7,2.7L12,41z"/>
<path class="st0" d="M6.9,37.8l18.5-10.6l0-5.4L6.9,32.4L6.9,37.8z"/>
<path class="st0" d="M14.3,27.3l11-6.3l0-5.4l-11,6.3L14.3,27.3z"/>
<path class="st0" d="M18.5,18.8l6.8-3.9l0-5.4l-6.8,3.9L18.5,18.8z"/>
<path class="st0" d="M30.7,29.9L26,27.2l0-5.4l4.8,2.7L30.7,29.9z"/>
<path class="st0" d="M30.7,23.7L26,21l0-5.4l4.7,2.7L30.7,23.7z"/>
<path class="st0" d="M30.7,17.6L26,14.9l0-5.6l4.7,2.7L30.7,17.6z"/>
</svg>
