<?xml version="1.0" encoding="UTF-8"?><svg id="Layer_1" xmlns="http://www.w3.org/2000/svg" viewBox="0 0 2500 865.99"><path d="M2492.16,642.63l-58.78,7.84s-3.92-23.51-23.51-39.18-86.21-11.76-86.21,27.43c0,35.27,27.43,31.35,82.29,43.1,50.94,11.76,94.04,27.43,94.04,97.96,0,39.18-27.43,86.21-113.64,86.21-141.07,0-129.31-105.8-129.31-105.8h62.7s3.92,35.27,27.43,43.1c27.43,11.76,74.45,7.84,82.29-15.67s7.84-50.94-66.61-58.78c-74.45-11.76-105.8-43.1-105.8-94.04,3.92-47.02,31.35-86.21,129.31-86.21,97.96,3.92,105.8,94.04,105.8,94.04h0Zm-270.38,0l-58.78,7.84s-3.92-23.51-23.51-39.18-86.21-11.76-86.21,27.43c0,35.27,27.43,31.35,82.29,43.1,50.94,11.76,94.04,27.43,94.04,97.96,0,39.18-27.43,86.21-113.64,86.21-141.07,0-129.31-105.8-129.31-105.8h66.61s3.92,35.27,27.43,43.1c27.43,11.76,74.45,7.84,82.29-15.67s7.84-50.94-66.61-58.78c-66.61-7.84-101.88-35.27-101.88-78.37v-15.67c3.92-47.02,31.35-86.21,125.39-86.21,90.13,3.92,101.88,94.04,101.88,94.04h0Zm-333.07,109.72h66.61v3.92c-3.92,23.51-15.67,105.8-129.31,105.8-101.88,0-137.15-78.37-137.15-160.66s50.94-148.9,144.98-148.9c105.8,0,113.64,101.88,113.64,101.88l-62.7,7.84s-3.92-54.86-58.78-54.86-74.45,43.1-74.45,94.04,15.67,109.72,70.53,109.72,66.61-58.78,66.61-58.78h0Zm-333.07-192.01v297.81h-54.86v-27.43s-19.59,35.27-66.61,35.27c-50.94,0-86.21-23.51-90.13-113.64,0-94.04,58.78-117.55,97.96-117.55,35.27,0,58.78,27.43,58.78,27.43v-101.88h54.86Zm-54.86,188.09c0-31.35-3.92-66.61-50.94-66.61s-47.02,54.86-47.02,70.53c0,19.59,3.92,62.7,47.02,62.7s50.94-35.27,50.94-66.61h0Zm-199.84-39.18v144.98h-58.78v-141.07c0-19.59-11.76-35.27-35.27-35.27s-47.02,19.59-47.02,39.18v137.15h-58.78v-219.44h58.78v31.35s19.59-39.18,78.37-35.27c66.61,7.84,62.7,70.53,62.7,78.37Zm-305.64-70.53h58.78v219.44h-58.78v-219.44Zm0-78.37h58.78v50.94h-58.78v-50.94Zm-23.51,78.37l-62.7,219.44h-58.78l-39.18-144.98-39.18,144.98h-54.86l-62.7-219.44h62.7l31.35,141.07,43.1-141.07h50.94l35.27,144.98,31.35-144.98h62.7Zm-403.61-82.29h58.78v297.81h-58.78v-297.81Zm-105.8,82.29h58.78v219.44h-58.78v-219.44Zm0-78.37h58.78v50.94h-58.78v-50.94Zm-47.02,156.74v137.15h-54.86v-27.43s-15.67,19.59-39.18,27.43c-35.27,11.76-86.21,3.92-101.88-35.27-11.76-31.35,0-66.61,31.35-82.29,39.18-19.59,105.8-15.67,105.8-15.67,0,0,3.92-15.67-3.92-27.43-3.92-11.76-15.67-15.67-31.35-15.67-39.18,0-39.18,27.43-39.18,27.43l-54.86-3.92s0-27.43,27.43-47.02c15.67-11.76,35.27-15.67,70.53-15.67,43.1,0,90.13,15.67,90.13,78.37Zm-90.13,97.96c39.18-7.84,35.27-54.86,35.27-54.86h-15.67c-11.76,0-27.43,0-39.18,3.92-19.59,3.92-27.43,11.76-31.35,19.59-3.92,11.76,0,23.51,11.76,31.35,7.84,3.92,19.59,3.92,39.18,0Zm-82.29-258.62v58.78h-90.13v242.95H86.21v-246.87H0v-54.86H242.95Z" style="fill:#f5f5f4;"/><path d="M1688.87,90.13s-54.86,82.29-148.9,66.61S1430.25,0,1261.76,0c-207.68,0-231.19,176.33-231.19,176.33,0,0,58.78-86.21,148.9-70.53,90.13,15.67,125.39,156.74,309.56,156.74s199.84-172.41,199.84-172.41Z" style="fill:#f5f5f4;"/><path d="M1469.44,352.66s-54.86,82.29-148.9,66.61-109.72-156.74-278.21-156.74c-207.68,0-231.19,176.33-231.19,176.33,0,0,58.78-86.21,148.9-70.53,86.21,15.67,125.39,156.74,309.56,156.74s199.84-172.41,199.84-172.41Z" style="fill:#f5f5f4;"/></svg>