<?xml version="1.0" encoding="utf-8"?>
<!-- Generator: Adobe Illustrator 26.3.1, SVG Export Plug-In . SVG Version: 6.00 Build 0)  -->
<svg version="1.1" id="Layer_1" xmlns="http://www.w3.org/2000/svg" xmlns:xlink="http://www.w3.org/1999/xlink" x="0px" y="0px"
	 viewBox="0 0 2490 2500" style="enable-background:new 0 0 2490 2500;" xml:space="preserve">
<style type="text/css">
	.st0{fill:#F5F5F4;}
</style>
<path class="st0" d="M2398.2,289.4L1730,411.2l-57.7,200c-6.5,22.5,13.1,43.9,36,39.4l244.5-47.2c25.5-4.9,45.6,21.6,33.9,44.8
	l-695.2,1387.5l-12.6,19.4c-18.8,29.1-64,10.6-57-23.4l112.2-542.8c4.8-23.3-17-43.2-39.8-36.3l-146.7,44.6
	c-22.7,6.9-44.5-13-39.8-36.2l70.6-345.6c4.6-22.3-15.5-41.9-37.7-36.8l-237.5,54.8c-2.9,0.7-5.9,0.9-8.9,0.7
	c-17.3-1-30.4-15.9-29.4-33.1l39.5-666.7L91.8,289.1c-52.3-9.4-91.8,46.6-65.5,92.7l1175.8,2061.9c24.2,42.4,85.3,42.1,109.1-0.5
	L2464.1,381.6C2490,335.3,2450.3,279.9,2398.2,289.4z"/>
</svg>
