<?xml version="1.0" encoding="UTF-8"?><svg id="Layer_1" xmlns="http://www.w3.org/2000/svg" viewBox="0 0 1937.71 2149.17"><path d="M1878.12,1656.46l-871.04,492.71v-383.75l542.71-298.54,328.33,189.58Zm59.58-53.96V572.08l-318.75,183.96v662.29l318.75,184.17h0ZM59.58,1656.46l871.04,492.71v-383.75l-542.71-298.54L59.58,1656.46h0ZM0,1602.5V572.08l318.75,183.96v662.29L0,1602.5H0ZM37.29,505.42L930.63,0V371.04L358.33,685.83l-4.38,2.5L37.29,505.42Zm1863.13,0L1007.08,0V371.04l572.29,314.79,4.37,2.5,316.67-182.92Z" style="fill:#f5f5f4;"/><path d="M930.63,1678.12l-535.42-294.37V800.42l535.42,309.17v568.54m76.46,0l535.42-294.37V800.42l-535.42,309.17v568.54M431.46,732.92L968.96,437.29l537.5,295.62-537.5,310.42L431.46,732.92" style="fill:#f5f5f4;"/></svg>