<?xml version="1.0" encoding="UTF-8"?><svg id="Layer_1" xmlns="http://www.w3.org/2000/svg" viewBox="0 0 2490.15 2490.07"><path d="M176.98,1245c0,422.77,245.68,788.12,601.96,961.26L269.45,810.33c-61.07,136.76-92.59,284.88-92.47,434.67Zm1789.1-53.9c0-131.99-47.42-223.41-88.08-294.55-54.15-87.98-104.89-162.48-104.89-250.46,0-98.18,74.47-189.58,179.36-189.58,4.74,0,9.22,.59,13.84,.86-190.02-174.09-443.19-280.38-721.25-280.38-373.14,0-701.42,191.45-892.4,481.42,25.06,.75,48.67,1.27,68.73,1.27,111.71,0,284.64-13.54,284.64-13.54,57.58-3.4,64.37,81.16,6.85,87.98,0,0-57.87,6.81-122.25,10.17l388.97,1156.91,233.74-701.01-166.41-455.93c-57.51-3.37-112-10.17-112-10.17-57.55-3.38-50.81-91.38,6.75-87.98,0,0,176.39,13.55,281.33,13.55,111.71,0,284.65-13.55,284.65-13.55,57.61-3.4,64.39,81.16,6.85,87.98,0,0-57.98,6.81-122.25,10.17l385.99,1148.14,106.53-356c46.17-147.73,81.31-253.83,81.31-345.28h0Zm-702.29,147.32l-320.46,931.19c97.98,28.86,199.58,43.51,301.72,43.51,124.37,0,243.65-21.5,354.68-60.54-2.96-4.67-5.51-9.6-7.61-14.72l-328.34-899.45h0Zm918.45-605.85c4.59,34.02,7.2,70.54,7.2,109.82,0,108.39-20.24,230.22-81.21,382.56l-326.25,943.27c317.53-185.17,531.1-529.18,531.1-923.2,.02-185.7-47.42-360.32-130.85-512.45h0ZM1245.05,0C558.54,0,0,558.5,0,1245s558.54,1245.07,1245.05,1245.07,1245.1-558.48,1245.1-1245.07C2490.14,558.5,1931.54,0,1245.06,0h0Zm0,2433c-655.02,0-1187.96-532.94-1187.96-1188S590,57.08,1245.05,57.08s1187.9,532.9,1187.9,1187.92-532.9,1188-1187.9,1188Z" style="fill:#f5f5f4;"/></svg>