<?xml version="1.0" encoding="utf-8"?>
<!-- Generator: Adobe Illustrator 26.3.1, SVG Export Plug-In . SVG Version: 6.00 Build 0)  -->
<svg version="1.1" id="Layer_1" xmlns="http://www.w3.org/2000/svg" xmlns:xlink="http://www.w3.org/1999/xlink" x="0px" y="0px"
	 viewBox="0 0 476.5 475" style="enable-background:new 0 0 476.5 475;" xml:space="preserve">
<style type="text/css">
	.st0{fill:#F5F5F4;}
</style>
<path class="st0" d="M162.6,475h152.7V359.5l-37.3-37.3h-79.2l-36.3,37.3V475z M360.1,161.1l-36.3,36.3v80.1l36.3,36.3h116.4V161.1
	H360.1z M315.4,0H162.6v116.4l36.3,36.3h79.2l37.3-36.3V0z M476.5,475V359.5l-36.3-37.3H323.8V475H476.5z M37.8,0L1.5,36.3v116.4
	h152.7V0H37.8z M323.8,0v116.4l36.3,36.3h116.4V0H323.8z M239,259.9c-12.1,0-21.4-10.2-21.4-21.4c0-12.1,10.2-21.4,21.4-21.4
	c12.1,0,21.4,10.2,21.4,21.4S251.1,259.9,239,259.9z M154.2,161.1H1.5v152.7H117l37.3-36.3V161.1z M154.2,359.5L117,322.3H1.5V475
	H117l37.3-36.3V359.5z"/>
</svg>
